<?xml version="1.0" encoding="utf-8"?>
<!-- Generator: Adobe Illustrator 14.0.0, SVG Export Plug-In . SVG Version: 6.00 Build 43363)  -->
<!DOCTYPE svg PUBLIC "-//W3C//DTD SVG 1.1//EN" "http://www.w3.org/Graphics/SVG/1.1/DTD/svg11.dtd">
<svg version="1.1" id="Layer_2" xmlns="http://www.w3.org/2000/svg" xmlns:xlink="http://www.w3.org/1999/xlink" x="0px" y="0px"
	 width="265.486px" height="206.99px" viewBox="0 0 265.486 206.99" enable-background="new 0 0 265.486 206.99"
	 xml:space="preserve">
<circle cx="73.235" cy="137.198" r="63.717"/>
<path d="M52.939,76.784V61.746c0,0,7.518-4.105,14.131-4.105c0.684-9.351,3.42-32.384,26.91-32.612s44.015,26.225,54.505,31.015
	c10.49,7.298,20.069,13.912,27.823,13s11.631-4.561,15.052-4.561s5.929,2.508,5.929,5.245s-5.474,7.981-10.491,9.122
	s-9.594,1.685-13.912,2.053c-10.719,0.914-31.699-14.824-38.769-19.841S104.47,35.747,93.979,37.343
	c-7.729,1.875-13.684,3.054-14.139,20.385c7.582,0.876,13.911,2.965,13.911,4.561s-0.497,14.405-0.497,14.405L52.939,76.784z"/>
<path d="M150.537,18.643c0,0,2.509-4.561,4.79-4.333c7.069,9.123,29.875,38.674,29.875,38.674L150.537,18.643z"/>
<path d="M195.236,50.57l-3.649-41.575c0,0,3.194-1.666,5.702,0C197.06,17.73,195.236,50.57,195.236,50.57z"/>
<path d="M234.461,14.301c0,0,3.421,0.693,4.562,2.745c-5.93,8.438-33.068,36.945-33.068,36.945L234.461,14.301z"/>
<path d="M211.199,63.341l39.454-10.358c0,0,1.825,2.508,1.141,5.179C245.864,59.464,211.199,63.341,211.199,63.341z"/>
<path d="M188.622,80.939l-19.613,43.749c0,0,2.508,2.737,5.245,2.737C176.079,123.548,188.622,80.939,188.622,80.939z"/>
<path d="M200.481,80.939c0,0,8.438,34.17,9.35,34.398s5.018-3.649,5.018-3.649L200.481,80.939z"/>
<path d="M249.057,100.97c0,0,3.044-2.965,2.891-4.333s-42.344-23.156-42.344-23.156L249.057,100.97z"/>
</svg>
